Dip1990


      The Dark Knight [2008] [Dual-Audio] [English+Hindi]_Dip1990


General
Complete name                    : The Dark Knight [2008] [Dual-Audio] [English+Hindi]_Dip1990.mkv
Director                         : Christopher Nolan
IMDB Rating                      : 9.0/10   320,493 votes

Plot summary :
--------------
Batman raises the stakes in his war on crime. With the help of Lieutenant Jim Gordon and District Attorney Harvey Dent, Batman sets out to dismantle the remaining criminal organizations that plague the city streets. The partnership proves to be effective, but they soon find themselves prey to a reign of chaos unleashed by a rising criminal mastermind known to the terrified citizens of Gotham as The Joker.

Format                           : Matroska
File size                        : 2.43 GiB
Duration                         : 2h 32mn
Overall bit rate                 : 2 283 Kbps
Encoded date                     : UTC 2010-09-01 10:30:13
Writing application              : mkvmerge v4.2.0 ('No Talking') built on Jul 28 2010 18:38:23
Writing library                  : libebml v1.0.0 + libmatroska v1.0.0

Video
ID                               : 1
Format                           : AVC
Format/Info                      : Advanced Video Codec
Format profile                   : High@L4.1
Format settings, CABAC           : Yes
Format settings, ReFrames        : 8 frames
Muxing mode                      : Container profile=Unknown@4.1
Codec ID                         : V_MPEG4/ISO/AVC
Duration                         : 2h 32mn
Bit rate                         : 2 014 Kbps
Width                            : 1 280 pixels
Height                           : 528 pixels
Display aspect ratio             : 2.40:1
Frame rate                       : 23.976 fps
Color space                      : YUV
Chroma subsampling               : 4:2:0
Bit depth                        : 8 bits
Scan type                        : Progressive
Bits/(Pixel*Frame)               : 0.124
Stream size                      : 2.09 GiB (86%)
Title                            : The Dark Knight
Writing library                  : x264 core 89 r1471kGIT 1144615
Encoding settings                : cabac=1 / ref=8 / deblock=1:-1:-1 / analyse=0x3:0x113 / me=umh / subme=9 / psy=1 / psy_rd=1.00:1.00 / mixed_ref=1 / me_range=16 / chroma_me=1 / trellis=2 / 8x8dct=1 / cqm=0 / deadzone=21,11 / fast_pskip=1 / chroma_qp_offset=-4 / threads=3 / sliced_threads=0 / slices=4 / nr=0 / decimate=1 / interlaced=0 / constrained_intra=0 / bframes=4 / b_pyramid=0 / b_adapt=2 / b_bias=0 / direct=1 / wpredb=1 / wpredp=2 / keyint=24 / keyint_min=2 / scenecut=40 / intra_refresh=0 / rc_lookahead=24 / rc=2pass / mbtree=1 / bitrate=2014 / ratetol=1.0 / qcomp=0.60 / qpmin=10 / qpmax=51 / qpstep=4 / cplxblur=20.0 / qblur=0.5 / vbv_maxrate=40000 / vbv_bufsize=30000 / ip_ratio=1.40 / aq=1:1.00 / pulldown=0 / nal_hrd=vbr

Audio #1
ID                               : 2
Format                           : MPEG Audio
Format version                   : Version 1
Format profile                   : Layer 3
Mode                             : Joint stereo
Mode extension                   : MS Stereo
Codec ID                         : A_MPEG/L3
Codec ID/Hint                    : MP3
Duration                         : 2h 32mn
Bit rate mode                    : Variable
Bit rate                         : 93.3 Kbps
Minimum bit rate                 : 32.0 Kbps
Channel(s)                       : 2 channels
Sampling rate                    : 48.0 KHz
Stream size                      : 102 MiB (4%)
Title                            : The Dark Knight - English
Writing library                  : LAME3.98r
Encoding settings                : -m j -V 6 -q 3 -lowpass 15.6 --vbr-old -b 32

Audio #2
ID                               : 3
Format                           : MPEG Audio
Format version                   : Version 1
Format profile                   : Layer 3
Mode                             : Joint stereo
Mode extension                   : MS Stereo
Codec ID                         : A_MPEG/L3
Codec ID/Hint                    : MP3
Duration                         : 2h 32mn
Bit rate mode                    : Variable
Bit rate                         : 174 Kbps
Minimum bit rate                 : 32.0 Kbps
Channel(s)                       : 2 channels
Sampling rate                    : 48.0 KHz
Stream size                      : 189 MiB (8%)
Title                            : The Dark Knight - Hindi
Writing library                  : LAME3.98r
Encoding settings                : -m j -V 0 -q 3 -lowpass 19.5 --vbr-old -b 32
Language                         : Hindi


Screens:
 
http://img842.imageshack.us/img842/1674/thedarkknight2008dualau.jpg 
http://img21.imageshack.us/img21/1674/thedarkknight2008dualau.jpg 
http://img689.imageshack.us/img689/1674/thedarkknight2008dualau.jpg 
http://img413.imageshack.us/img413/1674/thedarkknight2008dualau.jpg 
http://img715.imageshack.us/img715/1674/thedarkknight2008dualau.jpg 
http://img21.imageshack.us/img21/7590/thedarkknight2008dualaud.jpg 
http://img571.imageshack.us/img571/1674/thedarkknight2008dualau.jpg 
http://img834.imageshack.us/img834/1674/thedarkknight2008dualau.jpg 
http://img820.imageshack.us/img820/1674/thedarkknight2008dualau.jpg 
http://img832.imageshack.us/img832/1674/thedarkknight2008dualau.jpg

